<svg width="900" height="130" viewBox="0 0 900 130" fill="none" xmlns="http://www.w3.org/2000/svg">
<path d="M0 129L21.5 123.5C43 118 86 107 128.8 107.7C171.7 108.3 214.3 120.7 257.2 119C300 117.3 343 101.7 385.8 100.8C428.7 100 471.3 114 514.2 122C557 130 600 132 642.8 124.8C685.7 117.7 728.3 101.3 771.2 95.3C814 89.3 857 93.7 878.5 95.8L900 98V0H878.5C857 0 814 0 771.2 0C728.3 0 685.7 0 642.8 0C600 0 557 0 514.2 0C471.3 0 428.7 0 385.8 0C343 0 300 0 257.2 0C214.3 0 171.7 0 128.8 0C86 0 43 0 21.5 0H0V129Z" fill="#7FB285"/>
</svg>
