<svg id="visual" viewBox="0 0 1900 700" width="1900" height="700" xmlns="http://www.w3.org/2000/svg" xmlns:xlink="http://www.w3.org/1999/xlink" version="1.1"><path d="M0 92L10.2 94C20.3 96 40.7 100 61.2 104.7C81.7 109.3 102.3 114.7 122.8 113.5C143.3 112.3 163.7 104.7 184 99.2C204.3 93.7 224.7 90.3 245 96.3C265.3 102.3 285.7 117.7 306.2 121C326.7 124.3 347.3 115.7 367.8 107C388.3 98.3 408.7 89.7 429 87.3C449.3 85 469.7 89 490.2 97.8C510.7 106.7 531.3 120.3 551.8 124.5C572.3 128.7 592.7 123.3 613 120.7C633.3 118 653.7 118 674 114.7C694.3 111.3 714.7 104.7 735.2 106.2C755.7 107.7 776.3 117.3 796.8 117C817.3 116.7 837.7 106.3 858 104.2C878.3 102 898.7 108 919.2 104.2C939.7 100.3 960.3 86.7 980.8 86C1001.3 85.3 1021.7 97.7 1042 105.5C1062.3 113.3 1082.7 116.7 1103.2 118.5C1123.7 120.3 1144.3 120.7 1164.8 115.7C1185.3 110.7 1205.7 100.3 1226 96.7C1246.3 93 1266.7 96 1287 93.8C1307.3 91.7 1327.7 84.3 1348.2 89C1368.7 93.7 1389.3 110.3 1409.8 115.3C1430.3 120.3 1450.7 113.7 1471 114C1491.3 114.3 1511.7 121.7 1532.2 122.8C1552.7 124 1573.3 119 1593.8 111C1614.3 103 1634.7 92 1655 93.7C1675.3 95.3 1695.7 109.7 1716 109.7C1736.3 109.7 1756.7 95.3 1777.2 89.7C1797.7 84 1818.3 87 1838.8 93.2C1859.3 99.3 1879.7 108.7 1889.8 113.3L1900 118L1900 0L1889.8 0C1879.7 0 1859.3 0 1838.8 0C1818.3 0 1797.7 0 1777.2 0C1756.7 0 1736.3 0 1716 0C1695.7 0 1675.3 0 1655 0C1634.7 0 1614.3 0 1593.8 0C1573.3 0 1552.7 0 1532.2 0C1511.7 0 1491.3 0 1471 0C1450.7 0 1430.3 0 1409.8 0C1389.3 0 1368.7 0 1348.2 0C1327.7 0 1307.3 0 1287 0C1266.7 0 1246.3 0 1226 0C1205.7 0 1185.3 0 1164.8 0C1144.3 0 1123.7 0 1103.2 0C1082.7 0 1062.3 0 1042 0C1021.7 0 1001.3 0 980.8 0C960.3 0 939.7 0 919.2 0C898.7 0 878.3 0 858 0C837.7 0 817.3 0 796.8 0C776.3 0 755.7 0 735.2 0C714.7 0 694.3 0 674 0C653.7 0 633.3 0 613 0C592.7 0 572.3 0 551.8 0C531.3 0 510.7 0 490.2 0C469.7 0 449.3 0 429 0C408.7 0 388.3 0 367.8 0C347.3 0 326.7 0 306.2 0C285.7 0 265.3 0 245 0C224.7 0 204.3 0 184 0C163.7 0 143.3 0 122.8 0C102.3 0 81.7 0 61.2 0C40.7 0 20.3 0 10.2 0L0 0Z" fill="#7FB285" stroke-linecap="round" stroke-linejoin="miter"></path></svg>