<svg id="visual" viewBox="0 0 1280 800" width="1280" height="800" xmlns="http://www.w3.org/2000/svg" xmlns:xlink="http://www.w3.org/1999/xlink" version="1.1"><path d="M0 65L13.3 69.2C26.7 73.3 53.3 81.7 80 83.5C106.7 85.3 133.3 80.7 160 76.8C186.7 73 213.3 70 240 69.5C266.7 69 293.3 71 320 71.5C346.7 72 373.3 71 400 68.8C426.7 66.7 453.3 63.3 480 64.3C506.7 65.3 533.3 70.7 560 76.3C586.7 82 613.3 88 640 87.5C666.7 87 693.3 80 720 80C746.7 80 773.3 87 800 86.3C826.7 85.7 853.3 77.3 880 77.3C906.7 77.3 933.3 85.7 960 85.5C986.7 85.3 1013.3 76.7 1040 72.8C1066.7 69 1093.3 70 1120 68.3C1146.7 66.7 1173.3 62.3 1200 63.3C1226.7 64.3 1253.3 70.7 1266.7 73.8L1280 77L1280 0L1266.7 0C1253.3 0 1226.7 0 1200 0C1173.3 0 1146.7 0 1120 0C1093.3 0 1066.7 0 1040 0C1013.3 0 986.7 0 960 0C933.3 0 906.7 0 880 0C853.3 0 826.7 0 800 0C773.3 0 746.7 0 720 0C693.3 0 666.7 0 640 0C613.3 0 586.7 0 560 0C533.3 0 506.7 0 480 0C453.3 0 426.7 0 400 0C373.3 0 346.7 0 320 0C293.3 0 266.7 0 240 0C213.3 0 186.7 0 160 0C133.3 0 106.7 0 80 0C53.3 0 26.7 0 13.3 0L0 0Z" fill="#7FB285" stroke-linecap="round" stroke-linejoin="miter"></path></svg>